<svg width="24" height="24" viewBox="0 0 24 24" fill="none" xmlns="http://www.w3.org/2000/svg">
<path d="M12 16.5L11.6464 16.8536L12 17.2071L12.3536 16.8536L12 16.5ZM8.64645 13.8536L11.6464 16.8536L12.3536 16.1464L9.35355 13.1464L8.64645 13.8536ZM12.3536 16.8536L15.3536 13.8536L14.6464 13.1464L11.6464 16.1464L12.3536 16.8536Z" fill="#151515"/>
<path d="M12 10.5L11.6464 10.8536L12 11.2071L12.3536 10.8536L12 10.5ZM8.64645 7.85355L11.6464 10.8536L12.3536 10.1464L9.35355 7.14645L8.64645 7.85355ZM12.3536 10.8536L15.3536 7.85355L14.6464 7.14645L11.6464 10.1464L12.3536 10.8536Z" fill="#151515"/>
</svg>
